<svg width="15" height="9" viewBox="0 0 15 9" fill="none" xmlns="http://www.w3.org/2000/svg">
<path fill-rule="evenodd" clip-rule="evenodd" d="M0.064285 0.049832C0.0265628 0.0874514 -0.00231986 1.16289 0.000146985 2.43959L0.00446394 4.76079L2.33676 6.45674C3.61942 7.38952 4.77215 8.16719 4.89837 8.18487C5.20067 8.22732 5.23315 8.06656 5.26408 6.37297L5.28916 5.00439L7.47705 6.60424C8.68036 7.48418 9.72989 8.20409 9.80935 8.20409C10.0694 8.20409 10.1195 7.96594 10.1715 6.48028L10.2229 5.01354L12.418 6.61421C13.6253 7.49456 14.6892 8.20029 14.7821 8.18251C14.9321 8.15362 14.9537 7.88525 14.9755 5.7873L15 3.42458L12.6671 1.72862C11.384 0.795847 10.2398 0.0326677 10.1244 0.0326677C9.92344 0.0326677 9.91326 0.0997849 9.88603 1.61011C9.86331 2.87149 9.83032 3.17697 9.72105 3.13513C9.64592 3.10625 8.62732 2.38193 7.45762 1.52542C6.24291 0.636018 5.25576 -0.0174917 5.15575 0.00162636C5.00167 0.0312285 4.97742 0.221792 4.95244 1.60148C4.93682 2.46282 4.89056 3.167 4.84965 3.16638C4.80875 3.16566 3.79508 2.44874 2.59712 1.57321C0.541722 0.0709045 0.230386 -0.116269 0.064285 0.049832Z" fill="black"/>
</svg>
